<?xml version="1.0" encoding="UTF-8"?>
<svg id="frame_1" data-name="frame 1" xmlns="http://www.w3.org/2000/svg" viewBox="0 0 550 550">
  <defs>
    <style>
      .cls-1 {
        fill: #f0f;
        stroke-width: 0px;
      }
    </style>
  </defs>
  <path class="cls-1" d="M273.23,157.15c-107.04,0-202.15,40.98-262.27,104.47-10.67,11.26-10.67,28.9,0,40.16,60.13,63.49,155.23,104.47,262.27,104.47s202.15-40.98,262.27-104.47c10.67-11.26,10.67-28.9,0-40.16-60.13-63.49-155.23-104.47-262.27-104.47ZM278.97,393.1c-65.55,3.32-119.39-50.52-116.07-116.07,2.84-56.13,48.45-101.74,104.58-104.58,65.55-3.32,119.39,50.52,116.07,116.07-2.84,56.13-48.45,101.74-104.58,104.58Z"/>
  <path class="cls-1" d="M329.93,282.78c-39.77,9.36-47.35,16.94-56.71,56.71-9.36-39.77-16.94-47.35-56.71-56.71,39.77-9.36,47.35-16.94,56.71-56.71,9.36,39.77,16.94,47.35,56.71,56.71Z"/>
</svg>